<?xml version="1.0" encoding="utf-8" standalone="no"?>
<!DOCTYPE svg PUBLIC "-//W3C//DTD SVG 1.1//EN"
  "http://www.w3.org/Graphics/SVG/1.1/DTD/svg11.dtd">
<!-- Created with matplotlib (https://matplotlib.org/) -->
<svg height="108.56pt" version="1.1" viewBox="0 0 178.56 108.56" width="178.56pt" xmlns="http://www.w3.org/2000/svg" xmlns:xlink="http://www.w3.org/1999/xlink">
 <metadata>
  <rdf:RDF xmlns:cc="http://creativecommons.org/ns#" xmlns:dc="http://purl.org/dc/elements/1.1/" xmlns:rdf="http://www.w3.org/1999/02/22-rdf-syntax-ns#">
   <cc:Work>
    <dc:type rdf:resource="http://purl.org/dc/dcmitype/StillImage"/>
    <dc:date>2021-03-19T17:28:20.336932</dc:date>
    <dc:format>image/svg+xml</dc:format>
    <dc:creator>
     <cc:Agent>
      <dc:title>Matplotlib v3.3.4, https://matplotlib.org/</dc:title>
     </cc:Agent>
    </dc:creator>
   </cc:Work>
  </rdf:RDF>
 </metadata>
 <defs>
  <style type="text/css">*{stroke-linecap:butt;stroke-linejoin:round;}</style>
 </defs>
 <g id="figure_1">
  <g id="patch_1">
   <path d="M 0 108.56 
L 178.56 108.56 
L 178.56 0 
L 0 0 
z
" style="fill:#ffffff;"/>
  </g>
  <g id="axes_1">
   <g id="patch_2">
    <path d="M -189.72 -444.904348 
L 368.28 -444.904348 
L 368.28 -565.426087 
L -189.72 -565.426087 
z
" style="fill:#ffffff;"/>
   </g>
   <g id="patch_3">
    <path clip-path="url(#pefa7626a96)" d="M -189.72 -450.382609 
L 341.708571 -450.382609 
L 341.708571 -477.773913 
L -189.72 -477.773913 
z
" style="fill:#124197;"/>
   </g>
   <g id="patch_4">
    <path clip-path="url(#pefa7626a96)" d="M -189.72 -450.382609 
L -159.526801 -450.382609 
L -159.526801 -477.773913 
L -189.72 -477.773913 
z
" style="fill:#124197;"/>
   </g>
   <g id="patch_5">
    <path clip-path="url(#pefa7626a96)" d="M -189.72 -450.382609 
L -170.90596 -450.382609 
L -170.90596 -477.773913 
L -189.72 -477.773913 
z
" style="fill:#124197;"/>
   </g>
   <g id="patch_6">
    <path clip-path="url(#pefa7626a96)" d="M -189.72 -450.382609 
L -189.010518 -450.382609 
L -189.010518 -477.773913 
L -189.72 -477.773913 
z
" style="fill:#124197;"/>
   </g>
   <g id="patch_7">
    <path clip-path="url(#pefa7626a96)" d="M -189.72 -477.773913 
L -156.337588 -477.773913 
L -156.337588 -505.165217 
L -189.72 -505.165217 
z
" style="fill:#a31900;"/>
   </g>
   <g id="patch_8">
    <path clip-path="url(#pefa7626a96)" d="M -189.72 -477.773913 
L -158.674843 -477.773913 
L -158.674843 -505.165217 
L -189.72 -505.165217 
z
" style="fill:#a31900;"/>
   </g>
   <g id="patch_9">
    <path clip-path="url(#pefa7626a96)" d="M -189.72 -477.773913 
L -169.130855 -477.773913 
L -169.130855 -505.165217 
L -189.72 -505.165217 
z
" style="fill:#a31900;"/>
   </g>
   <g id="patch_10">
    <path clip-path="url(#pefa7626a96)" d="M -189.72 -477.773913 
L -189.005724 -477.773913 
L -189.005724 -505.165217 
L -189.72 -505.165217 
z
" style="fill:#a31900;"/>
   </g>
   <g id="patch_11">
    <path clip-path="url(#pefa7626a96)" d="M -189.72 -505.165217 
L -145.025823 -505.165217 
L -145.025823 -532.556522 
L -189.72 -532.556522 
z
" style="fill:#806c00;"/>
   </g>
   <g id="patch_12">
    <path clip-path="url(#pefa7626a96)" d="M -189.72 -505.165217 
L -132.440881 -505.165217 
L -132.440881 -532.556522 
L -189.72 -532.556522 
z
" style="fill:#806c00;"/>
   </g>
   <g id="patch_13">
    <path clip-path="url(#pefa7626a96)" d="M -189.72 -505.165217 
L -154.936702 -505.165217 
L -154.936702 -532.556522 
L -189.72 -532.556522 
z
" style="fill:#806c00;"/>
   </g>
   <g id="patch_14">
    <path clip-path="url(#pefa7626a96)" d="M -189.72 -505.165217 
L -188.511644 -505.165217 
L -188.511644 -532.556522 
L -189.72 -532.556522 
z
" style="fill:#806c00;"/>
   </g>
   <g id="patch_15">
    <path clip-path="url(#pefa7626a96)" d="M -189.72 -532.556522 
L -186.378307 -532.556522 
L -186.378307 -559.947826 
L -189.72 -559.947826 
z
" style="fill:#4d6619;"/>
   </g>
   <g id="patch_16">
    <path clip-path="url(#pefa7626a96)" d="M -189.72 -532.556522 
L -160.604262 -532.556522 
L -160.604262 -559.947826 
L -189.72 -559.947826 
z
" style="fill:#4d6619;"/>
   </g>
   <g id="patch_17">
    <path clip-path="url(#pefa7626a96)" d="M -189.72 -532.556522 
L -168.561789 -532.556522 
L -168.561789 -559.947826 
L -189.72 -559.947826 
z
" style="fill:#4d6619;"/>
   </g>
   <g id="patch_18">
    <path clip-path="url(#pefa7626a96)" d="M -189.72 -532.556522 
L -188.981501 -532.556522 
L -188.981501 -559.947826 
L -189.72 -559.947826 
z
" style="fill:#4d6619;"/>
   </g>
   <g id="patch_19">
    <path clip-path="url(#pefa7626a96)" d="M -189.72 -450.382609 
L -165.249659 -450.382609 
L -165.249659 -477.773913 
L -189.72 -477.773913 
z
" style="fill:#6495ed;"/>
   </g>
   <g id="patch_20">
    <path clip-path="url(#pefa7626a96)" d="M -189.72 -450.382609 
L -165.252715 -450.382609 
L -165.252715 -477.773913 
L -189.72 -477.773913 
z
" style="fill:#6495ed;"/>
   </g>
   <g id="patch_21">
    <path clip-path="url(#pefa7626a96)" d="M -189.72 -450.382609 
L -186.608796 -450.382609 
L -186.608796 -477.773913 
L -189.72 -477.773913 
z
" style="fill:#6495ed;"/>
   </g>
   <g id="patch_22">
    <path clip-path="url(#pefa7626a96)" d="M -189.72 -450.382609 
L -188.948947 -450.382609 
L -188.948947 -477.773913 
L -189.72 -477.773913 
z
" style="fill:#6495ed;"/>
   </g>
   <g id="patch_23">
    <path clip-path="url(#pefa7626a96)" d="M 0 0 
z
" style="fill:#ffd700;"/>
   </g>
   <g id="patch_24">
    <path clip-path="url(#pefa7626a96)" d="M 0 0 
z
" style="fill:#ffd700;"/>
   </g>
   <g id="patch_25">
    <path clip-path="url(#pefa7626a96)" d="M -189.72 -505.165217 
L -189.051275 -505.165217 
L -189.051275 -532.556522 
L -189.72 -532.556522 
z
" style="fill:#ffd700;"/>
   </g>
   <g id="patch_26">
    <path clip-path="url(#pefa7626a96)" d="M -189.72 -505.165217 
L -189.545549 -505.165217 
L -189.545549 -532.556522 
L -189.72 -532.556522 
z
" style="fill:#ffd700;"/>
   </g>
   <g id="patch_27">
    <path clip-path="url(#pefa7626a96)" d="M -189.72 -532.556522 
L -186.434216 -532.556522 
L -186.434216 -559.947826 
L -189.72 -559.947826 
z
" style="fill:#9acd32;"/>
   </g>
   <g id="patch_28">
    <path clip-path="url(#pefa7626a96)" d="M 0 0 
z
" style="fill:#9acd32;"/>
   </g>
   <g id="patch_29">
    <path clip-path="url(#pefa7626a96)" d="M 0 0 
z
" style="fill:#9acd32;"/>
   </g>
   <g id="patch_30">
    <path clip-path="url(#pefa7626a96)" d="M 0 0 
z
" style="fill:#9acd32;"/>
   </g>
   <g id="matplotlib.axis_1">
    <g id="xtick_1">
     <g id="line2d_1">
      <defs>
       <path d="M 0 0 
L 0 3.5 
" id="m3d19992f60" style="stroke:#000000;stroke-width:0.8;"/>
      </defs>
      <g/>
     </g>
     <g id="text_1">
      <!-- 0 -->
      <g transform="translate(-192.90125 -430.30591)scale(0.1 -0.1)">
       <defs>
        <path d="M 31.78125 66.40625 
Q 24.171875 66.40625 20.328125 58.90625 
Q 16.5 51.421875 16.5 36.375 
Q 16.5 21.390625 20.328125 13.890625 
Q 24.171875 6.390625 31.78125 6.390625 
Q 39.453125 6.390625 43.28125 13.890625 
Q 47.125 21.390625 47.125 36.375 
Q 47.125 51.421875 43.28125 58.90625 
Q 39.453125 66.40625 31.78125 66.40625 
z
M 31.78125 74.21875 
Q 44.046875 74.21875 50.515625 64.515625 
Q 56.984375 54.828125 56.984375 36.375 
Q 56.984375 17.96875 50.515625 8.265625 
Q 44.046875 -1.421875 31.78125 -1.421875 
Q 19.53125 -1.421875 13.0625 8.265625 
Q 6.59375 17.96875 6.59375 36.375 
Q 6.59375 54.828125 13.0625 64.515625 
Q 19.53125 74.21875 31.78125 74.21875 
z
" id="DejaVuSans-48"/>
       </defs>
       <use xlink:href="#DejaVuSans-48"/>
      </g>
     </g>
    </g>
    <g id="xtick_2">
     <g id="line2d_2">
      <g/>
     </g>
     <g id="text_2">
      <!-- 2000 -->
      <g transform="translate(-138.107439 -430.30591)scale(0.1 -0.1)">
       <defs>
        <path d="M 19.1875 8.296875 
L 53.609375 8.296875 
L 53.609375 0 
L 7.328125 0 
L 7.328125 8.296875 
Q 12.9375 14.109375 22.625 23.890625 
Q 32.328125 33.6875 34.8125 36.53125 
Q 39.546875 41.84375 41.421875 45.53125 
Q 43.3125 49.21875 43.3125 52.78125 
Q 43.3125 58.59375 39.234375 62.25 
Q 35.15625 65.921875 28.609375 65.921875 
Q 23.96875 65.921875 18.8125 64.3125 
Q 13.671875 62.703125 7.8125 59.421875 
L 7.8125 69.390625 
Q 13.765625 71.78125 18.9375 73 
Q 24.125 74.21875 28.421875 74.21875 
Q 39.75 74.21875 46.484375 68.546875 
Q 53.21875 62.890625 53.21875 53.421875 
Q 53.21875 48.921875 51.53125 44.890625 
Q 49.859375 40.875 45.40625 35.40625 
Q 44.1875 33.984375 37.640625 27.21875 
Q 31.109375 20.453125 19.1875 8.296875 
z
" id="DejaVuSans-50"/>
       </defs>
       <use xlink:href="#DejaVuSans-50"/>
       <use x="63.623047" xlink:href="#DejaVuSans-48"/>
       <use x="127.246094" xlink:href="#DejaVuSans-48"/>
       <use x="190.869141" xlink:href="#DejaVuSans-48"/>
      </g>
     </g>
    </g>
    <g id="xtick_3">
     <g id="line2d_3">
      <g/>
     </g>
     <g id="text_3">
      <!-- 4000 -->
      <g transform="translate(-73.769879 -430.30591)scale(0.1 -0.1)">
       <defs>
        <path d="M 37.796875 64.3125 
L 12.890625 25.390625 
L 37.796875 25.390625 
z
M 35.203125 72.90625 
L 47.609375 72.90625 
L 47.609375 25.390625 
L 58.015625 25.390625 
L 58.015625 17.1875 
L 47.609375 17.1875 
L 47.609375 0 
L 37.796875 0 
L 37.796875 17.1875 
L 4.890625 17.1875 
L 4.890625 26.703125 
z
" id="DejaVuSans-52"/>
       </defs>
       <use xlink:href="#DejaVuSans-52"/>
       <use x="63.623047" xlink:href="#DejaVuSans-48"/>
       <use x="127.246094" xlink:href="#DejaVuSans-48"/>
       <use x="190.869141" xlink:href="#DejaVuSans-48"/>
      </g>
     </g>
    </g>
    <g id="xtick_4">
     <g id="line2d_4">
      <g/>
     </g>
     <g id="text_4">
      <!-- 6000 -->
      <g transform="translate(-9.432318 -430.30591)scale(0.1 -0.1)">
       <defs>
        <path d="M 33.015625 40.375 
Q 26.375 40.375 22.484375 35.828125 
Q 18.609375 31.296875 18.609375 23.390625 
Q 18.609375 15.53125 22.484375 10.953125 
Q 26.375 6.390625 33.015625 6.390625 
Q 39.65625 6.390625 43.53125 10.953125 
Q 47.40625 15.53125 47.40625 23.390625 
Q 47.40625 31.296875 43.53125 35.828125 
Q 39.65625 40.375 33.015625 40.375 
z
M 52.59375 71.296875 
L 52.59375 62.3125 
Q 48.875 64.0625 45.09375 64.984375 
Q 41.3125 65.921875 37.59375 65.921875 
Q 27.828125 65.921875 22.671875 59.328125 
Q 17.53125 52.734375 16.796875 39.40625 
Q 19.671875 43.65625 24.015625 45.921875 
Q 28.375 48.1875 33.59375 48.1875 
Q 44.578125 48.1875 50.953125 41.515625 
Q 57.328125 34.859375 57.328125 23.390625 
Q 57.328125 12.15625 50.6875 5.359375 
Q 44.046875 -1.421875 33.015625 -1.421875 
Q 20.359375 -1.421875 13.671875 8.265625 
Q 6.984375 17.96875 6.984375 36.375 
Q 6.984375 53.65625 15.1875 63.9375 
Q 23.390625 74.21875 37.203125 74.21875 
Q 40.921875 74.21875 44.703125 73.484375 
Q 48.484375 72.75 52.59375 71.296875 
z
" id="DejaVuSans-54"/>
       </defs>
       <use xlink:href="#DejaVuSans-54"/>
       <use x="63.623047" xlink:href="#DejaVuSans-48"/>
       <use x="127.246094" xlink:href="#DejaVuSans-48"/>
       <use x="190.869141" xlink:href="#DejaVuSans-48"/>
      </g>
     </g>
    </g>
    <g id="xtick_5">
     <g id="line2d_5">
      <g/>
     </g>
     <g id="text_5">
      <!-- 8000 -->
      <g transform="translate(54.905242 -430.30591)scale(0.1 -0.1)">
       <defs>
        <path d="M 31.78125 34.625 
Q 24.75 34.625 20.71875 30.859375 
Q 16.703125 27.09375 16.703125 20.515625 
Q 16.703125 13.921875 20.71875 10.15625 
Q 24.75 6.390625 31.78125 6.390625 
Q 38.8125 6.390625 42.859375 10.171875 
Q 46.921875 13.96875 46.921875 20.515625 
Q 46.921875 27.09375 42.890625 30.859375 
Q 38.875 34.625 31.78125 34.625 
z
M 21.921875 38.8125 
Q 15.578125 40.375 12.03125 44.71875 
Q 8.5 49.078125 8.5 55.328125 
Q 8.5 64.0625 14.71875 69.140625 
Q 20.953125 74.21875 31.78125 74.21875 
Q 42.671875 74.21875 48.875 69.140625 
Q 55.078125 64.0625 55.078125 55.328125 
Q 55.078125 49.078125 51.53125 44.71875 
Q 48 40.375 41.703125 38.8125 
Q 48.828125 37.15625 52.796875 32.3125 
Q 56.78125 27.484375 56.78125 20.515625 
Q 56.78125 9.90625 50.3125 4.234375 
Q 43.84375 -1.421875 31.78125 -1.421875 
Q 19.734375 -1.421875 13.25 4.234375 
Q 6.78125 9.90625 6.78125 20.515625 
Q 6.78125 27.484375 10.78125 32.3125 
Q 14.796875 37.15625 21.921875 38.8125 
z
M 18.3125 54.390625 
Q 18.3125 48.734375 21.84375 45.5625 
Q 25.390625 42.390625 31.78125 42.390625 
Q 38.140625 42.390625 41.71875 45.5625 
Q 45.3125 48.734375 45.3125 54.390625 
Q 45.3125 60.0625 41.71875 63.234375 
Q 38.140625 66.40625 31.78125 66.40625 
Q 25.390625 66.40625 21.84375 63.234375 
Q 18.3125 60.0625 18.3125 54.390625 
z
" id="DejaVuSans-56"/>
       </defs>
       <use xlink:href="#DejaVuSans-56"/>
       <use x="63.623047" xlink:href="#DejaVuSans-48"/>
       <use x="127.246094" xlink:href="#DejaVuSans-48"/>
       <use x="190.869141" xlink:href="#DejaVuSans-48"/>
      </g>
     </g>
    </g>
    <g id="xtick_6">
     <g id="line2d_6">
      <g/>
     </g>
     <g id="text_6">
      <!-- 10000 -->
      <g transform="translate(116.061553 -430.30591)scale(0.1 -0.1)">
       <defs>
        <path d="M 12.40625 8.296875 
L 28.515625 8.296875 
L 28.515625 63.921875 
L 10.984375 60.40625 
L 10.984375 69.390625 
L 28.421875 72.90625 
L 38.28125 72.90625 
L 38.28125 8.296875 
L 54.390625 8.296875 
L 54.390625 0 
L 12.40625 0 
z
" id="DejaVuSans-49"/>
       </defs>
       <use xlink:href="#DejaVuSans-49"/>
       <use x="63.623047" xlink:href="#DejaVuSans-48"/>
       <use x="127.246094" xlink:href="#DejaVuSans-48"/>
       <use x="190.869141" xlink:href="#DejaVuSans-48"/>
       <use x="254.492188" xlink:href="#DejaVuSans-48"/>
      </g>
     </g>
    </g>
    <g id="xtick_7">
     <g id="line2d_7">
      <g/>
     </g>
     <g id="text_7">
      <!-- 12000 -->
      <g transform="translate(180.399113 -430.30591)scale(0.1 -0.1)">
       <use xlink:href="#DejaVuSans-49"/>
       <use x="63.623047" xlink:href="#DejaVuSans-50"/>
       <use x="127.246094" xlink:href="#DejaVuSans-48"/>
       <use x="190.869141" xlink:href="#DejaVuSans-48"/>
       <use x="254.492188" xlink:href="#DejaVuSans-48"/>
      </g>
     </g>
    </g>
    <g id="xtick_8">
     <g id="line2d_8">
      <g/>
     </g>
     <g id="text_8">
      <!-- 14000 -->
      <g transform="translate(244.736674 -430.30591)scale(0.1 -0.1)">
       <use xlink:href="#DejaVuSans-49"/>
       <use x="63.623047" xlink:href="#DejaVuSans-52"/>
       <use x="127.246094" xlink:href="#DejaVuSans-48"/>
       <use x="190.869141" xlink:href="#DejaVuSans-48"/>
       <use x="254.492188" xlink:href="#DejaVuSans-48"/>
      </g>
     </g>
    </g>
    <g id="xtick_9">
     <g id="line2d_9">
      <g/>
     </g>
     <g id="text_9">
      <!-- 16000 -->
      <g transform="translate(309.074234 -430.30591)scale(0.1 -0.1)">
       <use xlink:href="#DejaVuSans-49"/>
       <use x="63.623047" xlink:href="#DejaVuSans-54"/>
       <use x="127.246094" xlink:href="#DejaVuSans-48"/>
       <use x="190.869141" xlink:href="#DejaVuSans-48"/>
       <use x="254.492188" xlink:href="#DejaVuSans-48"/>
      </g>
     </g>
    </g>
   </g>
   <g id="matplotlib.axis_2">
    <g id="ytick_1">
     <g id="line2d_10">
      <defs>
       <path d="M 0 0 
L -3.5 0 
" id="maf542c2a15" style="stroke:#000000;stroke-width:0.8;"/>
      </defs>
      <g/>
     </g>
    </g>
   </g>
   <g id="patch_31">
    <path style="fill:none;stroke:#000000;stroke-linecap:square;stroke-linejoin:miter;stroke-width:0.8;"/>
   </g>
   <g id="patch_32">
    <path style="fill:none;stroke:#000000;stroke-linecap:square;stroke-linejoin:miter;stroke-width:0.8;"/>
   </g>
   <g id="patch_33">
    <path style="fill:none;stroke:#000000;stroke-linecap:square;stroke-linejoin:miter;stroke-width:0.8;"/>
   </g>
   <g id="patch_34">
    <path style="fill:none;stroke:#000000;stroke-linecap:square;stroke-linejoin:miter;stroke-width:0.8;"/>
   </g>
  </g>
  <g id="axes_2">
   <g id="patch_35">
    <path d="M -189.72 -300.278261 
L 368.28 -300.278261 
L 368.28 -420.8 
L -189.72 -420.8 
z
" style="fill:#ffffff;"/>
   </g>
   <g id="patch_36">
    <path clip-path="url(#pe16e6e8487)" d="M -189.72 -305.756522 
L 341.708571 -305.756522 
L 341.708571 -333.147826 
L -189.72 -333.147826 
z
" style="fill:#124197;"/>
   </g>
   <g id="patch_37">
    <path clip-path="url(#pe16e6e8487)" d="M -189.72 -305.756522 
L -159.526801 -305.756522 
L -159.526801 -333.147826 
L -189.72 -333.147826 
z
" style="fill:#124197;"/>
   </g>
   <g id="patch_38">
    <path clip-path="url(#pe16e6e8487)" d="M -189.72 -305.756522 
L -170.90596 -305.756522 
L -170.90596 -333.147826 
L -189.72 -333.147826 
z
" style="fill:#124197;"/>
   </g>
   <g id="patch_39">
    <path clip-path="url(#pe16e6e8487)" d="M -189.72 -305.756522 
L -189.010518 -305.756522 
L -189.010518 -333.147826 
L -189.72 -333.147826 
z
" style="fill:#124197;"/>
   </g>
   <g id="patch_40">
    <path clip-path="url(#pe16e6e8487)" d="M -189.72 -333.147826 
L -156.337588 -333.147826 
L -156.337588 -360.53913 
L -189.72 -360.53913 
z
" style="fill:#a31900;"/>
   </g>
   <g id="patch_41">
    <path clip-path="url(#pe16e6e8487)" d="M -189.72 -333.147826 
L -158.674843 -333.147826 
L -158.674843 -360.53913 
L -189.72 -360.53913 
z
" style="fill:#a31900;"/>
   </g>
   <g id="patch_42">
    <path clip-path="url(#pe16e6e8487)" d="M -189.72 -333.147826 
L -169.130855 -333.147826 
L -169.130855 -360.53913 
L -189.72 -360.53913 
z
" style="fill:#a31900;"/>
   </g>
   <g id="patch_43">
    <path clip-path="url(#pe16e6e8487)" d="M -189.72 -333.147826 
L -189.005724 -333.147826 
L -189.005724 -360.53913 
L -189.72 -360.53913 
z
" style="fill:#a31900;"/>
   </g>
   <g id="patch_44">
    <path clip-path="url(#pe16e6e8487)" d="M -189.72 -360.53913 
L -145.025823 -360.53913 
L -145.025823 -387.930435 
L -189.72 -387.930435 
z
" style="fill:#806c00;"/>
   </g>
   <g id="patch_45">
    <path clip-path="url(#pe16e6e8487)" d="M -189.72 -360.53913 
L -132.440881 -360.53913 
L -132.440881 -387.930435 
L -189.72 -387.930435 
z
" style="fill:#806c00;"/>
   </g>
   <g id="patch_46">
    <path clip-path="url(#pe16e6e8487)" d="M -189.72 -360.53913 
L -154.936702 -360.53913 
L -154.936702 -387.930435 
L -189.72 -387.930435 
z
" style="fill:#806c00;"/>
   </g>
   <g id="patch_47">
    <path clip-path="url(#pe16e6e8487)" d="M -189.72 -360.53913 
L -188.511644 -360.53913 
L -188.511644 -387.930435 
L -189.72 -387.930435 
z
" style="fill:#806c00;"/>
   </g>
   <g id="patch_48">
    <path clip-path="url(#pe16e6e8487)" d="M -189.72 -387.930435 
L -186.378307 -387.930435 
L -186.378307 -415.321739 
L -189.72 -415.321739 
z
" style="fill:#4d6619;"/>
   </g>
   <g id="patch_49">
    <path clip-path="url(#pe16e6e8487)" d="M -189.72 -387.930435 
L -160.604262 -387.930435 
L -160.604262 -415.321739 
L -189.72 -415.321739 
z
" style="fill:#4d6619;"/>
   </g>
   <g id="patch_50">
    <path clip-path="url(#pe16e6e8487)" d="M -189.72 -387.930435 
L -168.561789 -387.930435 
L -168.561789 -415.321739 
L -189.72 -415.321739 
z
" style="fill:#4d6619;"/>
   </g>
   <g id="patch_51">
    <path clip-path="url(#pe16e6e8487)" d="M -189.72 -387.930435 
L -188.981501 -387.930435 
L -188.981501 -415.321739 
L -189.72 -415.321739 
z
" style="fill:#4d6619;"/>
   </g>
   <g id="patch_52">
    <path clip-path="url(#pe16e6e8487)" d="M -189.72 -305.756522 
L -165.249659 -305.756522 
L -165.249659 -333.147826 
L -189.72 -333.147826 
z
" style="fill:#6495ed;"/>
   </g>
   <g id="patch_53">
    <path clip-path="url(#pe16e6e8487)" d="M -189.72 -305.756522 
L -165.252715 -305.756522 
L -165.252715 -333.147826 
L -189.72 -333.147826 
z
" style="fill:#6495ed;"/>
   </g>
   <g id="patch_54">
    <path clip-path="url(#pe16e6e8487)" d="M -189.72 -305.756522 
L -186.608796 -305.756522 
L -186.608796 -333.147826 
L -189.72 -333.147826 
z
" style="fill:#6495ed;"/>
   </g>
   <g id="patch_55">
    <path clip-path="url(#pe16e6e8487)" d="M -189.72 -305.756522 
L -188.948947 -305.756522 
L -188.948947 -333.147826 
L -189.72 -333.147826 
z
" style="fill:#6495ed;"/>
   </g>
   <g id="patch_56">
    <path clip-path="url(#pe16e6e8487)" d="M 0 0 
z
" style="fill:#ffd700;"/>
   </g>
   <g id="patch_57">
    <path clip-path="url(#pe16e6e8487)" d="M 0 0 
z
" style="fill:#ffd700;"/>
   </g>
   <g id="patch_58">
    <path clip-path="url(#pe16e6e8487)" d="M -189.72 -360.53913 
L -189.051275 -360.53913 
L -189.051275 -387.930435 
L -189.72 -387.930435 
z
" style="fill:#ffd700;"/>
   </g>
   <g id="patch_59">
    <path clip-path="url(#pe16e6e8487)" d="M -189.72 -360.53913 
L -189.545549 -360.53913 
L -189.545549 -387.930435 
L -189.72 -387.930435 
z
" style="fill:#ffd700;"/>
   </g>
   <g id="patch_60">
    <path clip-path="url(#pe16e6e8487)" d="M -189.72 -387.930435 
L -186.434216 -387.930435 
L -186.434216 -415.321739 
L -189.72 -415.321739 
z
" style="fill:#9acd32;"/>
   </g>
   <g id="patch_61">
    <path clip-path="url(#pe16e6e8487)" d="M 0 0 
z
" style="fill:#9acd32;"/>
   </g>
   <g id="patch_62">
    <path clip-path="url(#pe16e6e8487)" d="M 0 0 
z
" style="fill:#9acd32;"/>
   </g>
   <g id="patch_63">
    <path clip-path="url(#pe16e6e8487)" d="M 0 0 
z
" style="fill:#9acd32;"/>
   </g>
   <g id="matplotlib.axis_3">
    <g id="xtick_10">
     <g id="line2d_11">
      <g/>
     </g>
     <g id="text_10">
      <!-- 0 -->
      <g transform="translate(-192.90125 -285.679823)scale(0.1 -0.1)">
       <use xlink:href="#DejaVuSans-48"/>
      </g>
     </g>
    </g>
    <g id="xtick_11">
     <g id="line2d_12">
      <g/>
     </g>
     <g id="text_11">
      <!-- 2000 -->
      <g transform="translate(-138.107439 -285.679823)scale(0.1 -0.1)">
       <use xlink:href="#DejaVuSans-50"/>
       <use x="63.623047" xlink:href="#DejaVuSans-48"/>
       <use x="127.246094" xlink:href="#DejaVuSans-48"/>
       <use x="190.869141" xlink:href="#DejaVuSans-48"/>
      </g>
     </g>
    </g>
    <g id="xtick_12">
     <g id="line2d_13">
      <g/>
     </g>
     <g id="text_12">
      <!-- 4000 -->
      <g transform="translate(-73.769879 -285.679823)scale(0.1 -0.1)">
       <use xlink:href="#DejaVuSans-52"/>
       <use x="63.623047" xlink:href="#DejaVuSans-48"/>
       <use x="127.246094" xlink:href="#DejaVuSans-48"/>
       <use x="190.869141" xlink:href="#DejaVuSans-48"/>
      </g>
     </g>
    </g>
    <g id="xtick_13">
     <g id="line2d_14">
      <g/>
     </g>
     <g id="text_13">
      <!-- 6000 -->
      <g transform="translate(-9.432318 -285.679823)scale(0.1 -0.1)">
       <use xlink:href="#DejaVuSans-54"/>
       <use x="63.623047" xlink:href="#DejaVuSans-48"/>
       <use x="127.246094" xlink:href="#DejaVuSans-48"/>
       <use x="190.869141" xlink:href="#DejaVuSans-48"/>
      </g>
     </g>
    </g>
    <g id="xtick_14">
     <g id="line2d_15">
      <g/>
     </g>
     <g id="text_14">
      <!-- 8000 -->
      <g transform="translate(54.905242 -285.679823)scale(0.1 -0.1)">
       <use xlink:href="#DejaVuSans-56"/>
       <use x="63.623047" xlink:href="#DejaVuSans-48"/>
       <use x="127.246094" xlink:href="#DejaVuSans-48"/>
       <use x="190.869141" xlink:href="#DejaVuSans-48"/>
      </g>
     </g>
    </g>
    <g id="xtick_15">
     <g id="line2d_16">
      <g/>
     </g>
     <g id="text_15">
      <!-- 10000 -->
      <g transform="translate(116.061553 -285.679823)scale(0.1 -0.1)">
       <use xlink:href="#DejaVuSans-49"/>
       <use x="63.623047" xlink:href="#DejaVuSans-48"/>
       <use x="127.246094" xlink:href="#DejaVuSans-48"/>
       <use x="190.869141" xlink:href="#DejaVuSans-48"/>
       <use x="254.492188" xlink:href="#DejaVuSans-48"/>
      </g>
     </g>
    </g>
    <g id="xtick_16">
     <g id="line2d_17">
      <g/>
     </g>
     <g id="text_16">
      <!-- 12000 -->
      <g transform="translate(180.399113 -285.679823)scale(0.1 -0.1)">
       <use xlink:href="#DejaVuSans-49"/>
       <use x="63.623047" xlink:href="#DejaVuSans-50"/>
       <use x="127.246094" xlink:href="#DejaVuSans-48"/>
       <use x="190.869141" xlink:href="#DejaVuSans-48"/>
       <use x="254.492188" xlink:href="#DejaVuSans-48"/>
      </g>
     </g>
    </g>
    <g id="xtick_17">
     <g id="line2d_18">
      <g/>
     </g>
     <g id="text_17">
      <!-- 14000 -->
      <g transform="translate(244.736674 -285.679823)scale(0.1 -0.1)">
       <use xlink:href="#DejaVuSans-49"/>
       <use x="63.623047" xlink:href="#DejaVuSans-52"/>
       <use x="127.246094" xlink:href="#DejaVuSans-48"/>
       <use x="190.869141" xlink:href="#DejaVuSans-48"/>
       <use x="254.492188" xlink:href="#DejaVuSans-48"/>
      </g>
     </g>
    </g>
    <g id="xtick_18">
     <g id="line2d_19">
      <g/>
     </g>
     <g id="text_18">
      <!-- 16000 -->
      <g transform="translate(309.074234 -285.679823)scale(0.1 -0.1)">
       <use xlink:href="#DejaVuSans-49"/>
       <use x="63.623047" xlink:href="#DejaVuSans-54"/>
       <use x="127.246094" xlink:href="#DejaVuSans-48"/>
       <use x="190.869141" xlink:href="#DejaVuSans-48"/>
       <use x="254.492188" xlink:href="#DejaVuSans-48"/>
      </g>
     </g>
    </g>
   </g>
   <g id="matplotlib.axis_4">
    <g id="ytick_2">
     <g id="line2d_20">
      <g/>
     </g>
    </g>
   </g>
   <g id="patch_64">
    <path style="fill:none;stroke:#000000;stroke-linecap:square;stroke-linejoin:miter;stroke-width:0.8;"/>
   </g>
   <g id="patch_65">
    <path style="fill:none;stroke:#000000;stroke-linecap:square;stroke-linejoin:miter;stroke-width:0.8;"/>
   </g>
   <g id="patch_66">
    <path style="fill:none;stroke:#000000;stroke-linecap:square;stroke-linejoin:miter;stroke-width:0.8;"/>
   </g>
   <g id="patch_67">
    <path style="fill:none;stroke:#000000;stroke-linecap:square;stroke-linejoin:miter;stroke-width:0.8;"/>
   </g>
  </g>
  <g id="axes_3">
   <g id="patch_68">
    <path d="M -189.72 -155.652174 
L 368.28 -155.652174 
L 368.28 -276.173913 
L -189.72 -276.173913 
z
" style="fill:#ffffff;"/>
   </g>
   <g id="patch_69">
    <path clip-path="url(#p90c13da503)" d="M -189.72 -161.130435 
L 341.708571 -161.130435 
L 341.708571 -188.521739 
L -189.72 -188.521739 
z
" style="fill:#124197;"/>
   </g>
   <g id="patch_70">
    <path clip-path="url(#p90c13da503)" d="M -189.72 -161.130435 
L -159.526801 -161.130435 
L -159.526801 -188.521739 
L -189.72 -188.521739 
z
" style="fill:#124197;"/>
   </g>
   <g id="patch_71">
    <path clip-path="url(#p90c13da503)" d="M -189.72 -161.130435 
L -170.90596 -161.130435 
L -170.90596 -188.521739 
L -189.72 -188.521739 
z
" style="fill:#124197;"/>
   </g>
   <g id="patch_72">
    <path clip-path="url(#p90c13da503)" d="M -189.72 -161.130435 
L -189.010518 -161.130435 
L -189.010518 -188.521739 
L -189.72 -188.521739 
z
" style="fill:#124197;"/>
   </g>
   <g id="patch_73">
    <path clip-path="url(#p90c13da503)" d="M -189.72 -188.521739 
L -156.337588 -188.521739 
L -156.337588 -215.913043 
L -189.72 -215.913043 
z
" style="fill:#a31900;"/>
   </g>
   <g id="patch_74">
    <path clip-path="url(#p90c13da503)" d="M -189.72 -188.521739 
L -158.674843 -188.521739 
L -158.674843 -215.913043 
L -189.72 -215.913043 
z
" style="fill:#a31900;"/>
   </g>
   <g id="patch_75">
    <path clip-path="url(#p90c13da503)" d="M -189.72 -188.521739 
L -169.130855 -188.521739 
L -169.130855 -215.913043 
L -189.72 -215.913043 
z
" style="fill:#a31900;"/>
   </g>
   <g id="patch_76">
    <path clip-path="url(#p90c13da503)" d="M -189.72 -188.521739 
L -189.005724 -188.521739 
L -189.005724 -215.913043 
L -189.72 -215.913043 
z
" style="fill:#a31900;"/>
   </g>
   <g id="patch_77">
    <path clip-path="url(#p90c13da503)" d="M -189.72 -215.913043 
L -145.025823 -215.913043 
L -145.025823 -243.304348 
L -189.72 -243.304348 
z
" style="fill:#806c00;"/>
   </g>
   <g id="patch_78">
    <path clip-path="url(#p90c13da503)" d="M -189.72 -215.913043 
L -132.440881 -215.913043 
L -132.440881 -243.304348 
L -189.72 -243.304348 
z
" style="fill:#806c00;"/>
   </g>
   <g id="patch_79">
    <path clip-path="url(#p90c13da503)" d="M -189.72 -215.913043 
L -154.936702 -215.913043 
L -154.936702 -243.304348 
L -189.72 -243.304348 
z
" style="fill:#806c00;"/>
   </g>
   <g id="patch_80">
    <path clip-path="url(#p90c13da503)" d="M -189.72 -215.913043 
L -188.511644 -215.913043 
L -188.511644 -243.304348 
L -189.72 -243.304348 
z
" style="fill:#806c00;"/>
   </g>
   <g id="patch_81">
    <path clip-path="url(#p90c13da503)" d="M -189.72 -243.304348 
L -186.378307 -243.304348 
L -186.378307 -270.695652 
L -189.72 -270.695652 
z
" style="fill:#4d6619;"/>
   </g>
   <g id="patch_82">
    <path clip-path="url(#p90c13da503)" d="M -189.72 -243.304348 
L -160.604262 -243.304348 
L -160.604262 -270.695652 
L -189.72 -270.695652 
z
" style="fill:#4d6619;"/>
   </g>
   <g id="patch_83">
    <path clip-path="url(#p90c13da503)" d="M -189.72 -243.304348 
L -168.561789 -243.304348 
L -168.561789 -270.695652 
L -189.72 -270.695652 
z
" style="fill:#4d6619;"/>
   </g>
   <g id="patch_84">
    <path clip-path="url(#p90c13da503)" d="M -189.72 -243.304348 
L -188.981501 -243.304348 
L -188.981501 -270.695652 
L -189.72 -270.695652 
z
" style="fill:#4d6619;"/>
   </g>
   <g id="patch_85">
    <path clip-path="url(#p90c13da503)" d="M -189.72 -161.130435 
L -165.249659 -161.130435 
L -165.249659 -188.521739 
L -189.72 -188.521739 
z
" style="fill:#6495ed;"/>
   </g>
   <g id="patch_86">
    <path clip-path="url(#p90c13da503)" d="M -189.72 -161.130435 
L -165.252715 -161.130435 
L -165.252715 -188.521739 
L -189.72 -188.521739 
z
" style="fill:#6495ed;"/>
   </g>
   <g id="patch_87">
    <path clip-path="url(#p90c13da503)" d="M -189.72 -161.130435 
L -186.608796 -161.130435 
L -186.608796 -188.521739 
L -189.72 -188.521739 
z
" style="fill:#6495ed;"/>
   </g>
   <g id="patch_88">
    <path clip-path="url(#p90c13da503)" d="M -189.72 -161.130435 
L -188.948947 -161.130435 
L -188.948947 -188.521739 
L -189.72 -188.521739 
z
" style="fill:#6495ed;"/>
   </g>
   <g id="patch_89">
    <path clip-path="url(#p90c13da503)" d="M 0 0 
z
" style="fill:#ffd700;"/>
   </g>
   <g id="patch_90">
    <path clip-path="url(#p90c13da503)" d="M 0 0 
z
" style="fill:#ffd700;"/>
   </g>
   <g id="patch_91">
    <path clip-path="url(#p90c13da503)" d="M -189.72 -215.913043 
L -189.051275 -215.913043 
L -189.051275 -243.304348 
L -189.72 -243.304348 
z
" style="fill:#ffd700;"/>
   </g>
   <g id="patch_92">
    <path clip-path="url(#p90c13da503)" d="M -189.72 -215.913043 
L -189.545549 -215.913043 
L -189.545549 -243.304348 
L -189.72 -243.304348 
z
" style="fill:#ffd700;"/>
   </g>
   <g id="patch_93">
    <path clip-path="url(#p90c13da503)" d="M -189.72 -243.304348 
L -186.434216 -243.304348 
L -186.434216 -270.695652 
L -189.72 -270.695652 
z
" style="fill:#9acd32;"/>
   </g>
   <g id="patch_94">
    <path clip-path="url(#p90c13da503)" d="M 0 0 
z
" style="fill:#9acd32;"/>
   </g>
   <g id="patch_95">
    <path clip-path="url(#p90c13da503)" d="M 0 0 
z
" style="fill:#9acd32;"/>
   </g>
   <g id="patch_96">
    <path clip-path="url(#p90c13da503)" d="M 0 0 
z
" style="fill:#9acd32;"/>
   </g>
   <g id="matplotlib.axis_5">
    <g id="xtick_19">
     <g id="line2d_21">
      <g/>
     </g>
     <g id="text_19">
      <!-- 0 -->
      <g transform="translate(-192.90125 -141.053736)scale(0.1 -0.1)">
       <use xlink:href="#DejaVuSans-48"/>
      </g>
     </g>
    </g>
    <g id="xtick_20">
     <g id="line2d_22">
      <g/>
     </g>
     <g id="text_20">
      <!-- 2000 -->
      <g transform="translate(-138.107439 -141.053736)scale(0.1 -0.1)">
       <use xlink:href="#DejaVuSans-50"/>
       <use x="63.623047" xlink:href="#DejaVuSans-48"/>
       <use x="127.246094" xlink:href="#DejaVuSans-48"/>
       <use x="190.869141" xlink:href="#DejaVuSans-48"/>
      </g>
     </g>
    </g>
    <g id="xtick_21">
     <g id="line2d_23">
      <g/>
     </g>
     <g id="text_21">
      <!-- 4000 -->
      <g transform="translate(-73.769879 -141.053736)scale(0.1 -0.1)">
       <use xlink:href="#DejaVuSans-52"/>
       <use x="63.623047" xlink:href="#DejaVuSans-48"/>
       <use x="127.246094" xlink:href="#DejaVuSans-48"/>
       <use x="190.869141" xlink:href="#DejaVuSans-48"/>
      </g>
     </g>
    </g>
    <g id="xtick_22">
     <g id="line2d_24">
      <g/>
     </g>
     <g id="text_22">
      <!-- 6000 -->
      <g transform="translate(-9.432318 -141.053736)scale(0.1 -0.1)">
       <use xlink:href="#DejaVuSans-54"/>
       <use x="63.623047" xlink:href="#DejaVuSans-48"/>
       <use x="127.246094" xlink:href="#DejaVuSans-48"/>
       <use x="190.869141" xlink:href="#DejaVuSans-48"/>
      </g>
     </g>
    </g>
    <g id="xtick_23">
     <g id="line2d_25">
      <g/>
     </g>
     <g id="text_23">
      <!-- 8000 -->
      <g transform="translate(54.905242 -141.053736)scale(0.1 -0.1)">
       <use xlink:href="#DejaVuSans-56"/>
       <use x="63.623047" xlink:href="#DejaVuSans-48"/>
       <use x="127.246094" xlink:href="#DejaVuSans-48"/>
       <use x="190.869141" xlink:href="#DejaVuSans-48"/>
      </g>
     </g>
    </g>
    <g id="xtick_24">
     <g id="line2d_26">
      <g/>
     </g>
     <g id="text_24">
      <!-- 10000 -->
      <g transform="translate(116.061553 -141.053736)scale(0.1 -0.1)">
       <use xlink:href="#DejaVuSans-49"/>
       <use x="63.623047" xlink:href="#DejaVuSans-48"/>
       <use x="127.246094" xlink:href="#DejaVuSans-48"/>
       <use x="190.869141" xlink:href="#DejaVuSans-48"/>
       <use x="254.492188" xlink:href="#DejaVuSans-48"/>
      </g>
     </g>
    </g>
    <g id="xtick_25">
     <g id="line2d_27">
      <g/>
     </g>
     <g id="text_25">
      <!-- 12000 -->
      <g transform="translate(180.399113 -141.053736)scale(0.1 -0.1)">
       <use xlink:href="#DejaVuSans-49"/>
       <use x="63.623047" xlink:href="#DejaVuSans-50"/>
       <use x="127.246094" xlink:href="#DejaVuSans-48"/>
       <use x="190.869141" xlink:href="#DejaVuSans-48"/>
       <use x="254.492188" xlink:href="#DejaVuSans-48"/>
      </g>
     </g>
    </g>
    <g id="xtick_26">
     <g id="line2d_28">
      <g/>
     </g>
     <g id="text_26">
      <!-- 14000 -->
      <g transform="translate(244.736674 -141.053736)scale(0.1 -0.1)">
       <use xlink:href="#DejaVuSans-49"/>
       <use x="63.623047" xlink:href="#DejaVuSans-52"/>
       <use x="127.246094" xlink:href="#DejaVuSans-48"/>
       <use x="190.869141" xlink:href="#DejaVuSans-48"/>
       <use x="254.492188" xlink:href="#DejaVuSans-48"/>
      </g>
     </g>
    </g>
    <g id="xtick_27">
     <g id="line2d_29">
      <g/>
     </g>
     <g id="text_27">
      <!-- 16000 -->
      <g transform="translate(309.074234 -141.053736)scale(0.1 -0.1)">
       <use xlink:href="#DejaVuSans-49"/>
       <use x="63.623047" xlink:href="#DejaVuSans-54"/>
       <use x="127.246094" xlink:href="#DejaVuSans-48"/>
       <use x="190.869141" xlink:href="#DejaVuSans-48"/>
       <use x="254.492188" xlink:href="#DejaVuSans-48"/>
      </g>
     </g>
    </g>
   </g>
   <g id="matplotlib.axis_6">
    <g id="ytick_3">
     <g id="line2d_30">
      <g/>
     </g>
    </g>
   </g>
   <g id="patch_97">
    <path style="fill:none;stroke:#000000;stroke-linecap:square;stroke-linejoin:miter;stroke-width:0.8;"/>
   </g>
   <g id="patch_98">
    <path style="fill:none;stroke:#000000;stroke-linecap:square;stroke-linejoin:miter;stroke-width:0.8;"/>
   </g>
   <g id="patch_99">
    <path style="fill:none;stroke:#000000;stroke-linecap:square;stroke-linejoin:miter;stroke-width:0.8;"/>
   </g>
   <g id="patch_100">
    <path style="fill:none;stroke:#000000;stroke-linecap:square;stroke-linejoin:miter;stroke-width:0.8;"/>
   </g>
  </g>
  <g id="axes_4">
   <g id="patch_101">
    <path d="M -189.72 -11.026087 
L 368.28 -11.026087 
L 368.28 -131.547826 
L -189.72 -131.547826 
z
" style="fill:#ffffff;"/>
   </g>
   <g id="patch_102">
    <path clip-path="url(#pd1adc9b042)" d="M -189.72 -16.504348 
L 341.708571 -16.504348 
L 341.708571 -43.895652 
L -189.72 -43.895652 
z
" style="fill:#124197;"/>
   </g>
   <g id="patch_103">
    <path clip-path="url(#pd1adc9b042)" d="M -189.72 -16.504348 
L -159.526801 -16.504348 
L -159.526801 -43.895652 
L -189.72 -43.895652 
z
" style="fill:#124197;"/>
   </g>
   <g id="patch_104">
    <path clip-path="url(#pd1adc9b042)" d="M -189.72 -16.504348 
L -170.90596 -16.504348 
L -170.90596 -43.895652 
L -189.72 -43.895652 
z
" style="fill:#124197;"/>
   </g>
   <g id="patch_105">
    <path clip-path="url(#pd1adc9b042)" d="M -189.72 -16.504348 
L -189.010518 -16.504348 
L -189.010518 -43.895652 
L -189.72 -43.895652 
z
" style="fill:#124197;"/>
   </g>
   <g id="patch_106">
    <path clip-path="url(#pd1adc9b042)" d="M -189.72 -43.895652 
L -156.337588 -43.895652 
L -156.337588 -71.286957 
L -189.72 -71.286957 
z
" style="fill:#a31900;"/>
   </g>
   <g id="patch_107">
    <path clip-path="url(#pd1adc9b042)" d="M -189.72 -43.895652 
L -158.674843 -43.895652 
L -158.674843 -71.286957 
L -189.72 -71.286957 
z
" style="fill:#a31900;"/>
   </g>
   <g id="patch_108">
    <path clip-path="url(#pd1adc9b042)" d="M -189.72 -43.895652 
L -169.130855 -43.895652 
L -169.130855 -71.286957 
L -189.72 -71.286957 
z
" style="fill:#a31900;"/>
   </g>
   <g id="patch_109">
    <path clip-path="url(#pd1adc9b042)" d="M -189.72 -43.895652 
L -189.005724 -43.895652 
L -189.005724 -71.286957 
L -189.72 -71.286957 
z
" style="fill:#a31900;"/>
   </g>
   <g id="patch_110">
    <path clip-path="url(#pd1adc9b042)" d="M -189.72 -71.286957 
L -145.025823 -71.286957 
L -145.025823 -98.678261 
L -189.72 -98.678261 
z
" style="fill:#806c00;"/>
   </g>
   <g id="patch_111">
    <path clip-path="url(#pd1adc9b042)" d="M -189.72 -71.286957 
L -132.440881 -71.286957 
L -132.440881 -98.678261 
L -189.72 -98.678261 
z
" style="fill:#806c00;"/>
   </g>
   <g id="patch_112">
    <path clip-path="url(#pd1adc9b042)" d="M -189.72 -71.286957 
L -154.936702 -71.286957 
L -154.936702 -98.678261 
L -189.72 -98.678261 
z
" style="fill:#806c00;"/>
   </g>
   <g id="patch_113">
    <path clip-path="url(#pd1adc9b042)" d="M -189.72 -71.286957 
L -188.511644 -71.286957 
L -188.511644 -98.678261 
L -189.72 -98.678261 
z
" style="fill:#806c00;"/>
   </g>
   <g id="patch_114">
    <path clip-path="url(#pd1adc9b042)" d="M -189.72 -98.678261 
L -186.378307 -98.678261 
L -186.378307 -126.069565 
L -189.72 -126.069565 
z
" style="fill:#4d6619;"/>
   </g>
   <g id="patch_115">
    <path clip-path="url(#pd1adc9b042)" d="M -189.72 -98.678261 
L -160.604262 -98.678261 
L -160.604262 -126.069565 
L -189.72 -126.069565 
z
" style="fill:#4d6619;"/>
   </g>
   <g id="patch_116">
    <path clip-path="url(#pd1adc9b042)" d="M -189.72 -98.678261 
L -168.561789 -98.678261 
L -168.561789 -126.069565 
L -189.72 -126.069565 
z
" style="fill:#4d6619;"/>
   </g>
   <g id="patch_117">
    <path clip-path="url(#pd1adc9b042)" d="M -189.72 -98.678261 
L -188.981501 -98.678261 
L -188.981501 -126.069565 
L -189.72 -126.069565 
z
" style="fill:#4d6619;"/>
   </g>
   <g id="patch_118">
    <path clip-path="url(#pd1adc9b042)" d="M -189.72 -16.504348 
L -165.249659 -16.504348 
L -165.249659 -43.895652 
L -189.72 -43.895652 
z
" style="fill:#6495ed;"/>
   </g>
   <g id="patch_119">
    <path clip-path="url(#pd1adc9b042)" d="M -189.72 -16.504348 
L -165.252715 -16.504348 
L -165.252715 -43.895652 
L -189.72 -43.895652 
z
" style="fill:#6495ed;"/>
   </g>
   <g id="patch_120">
    <path clip-path="url(#pd1adc9b042)" d="M -189.72 -16.504348 
L -186.608796 -16.504348 
L -186.608796 -43.895652 
L -189.72 -43.895652 
z
" style="fill:#6495ed;"/>
   </g>
   <g id="patch_121">
    <path clip-path="url(#pd1adc9b042)" d="M -189.72 -16.504348 
L -188.948947 -16.504348 
L -188.948947 -43.895652 
L -189.72 -43.895652 
z
" style="fill:#6495ed;"/>
   </g>
   <g id="patch_122">
    <path clip-path="url(#pd1adc9b042)" d="M 0 0 
z
" style="fill:#ffd700;"/>
   </g>
   <g id="patch_123">
    <path clip-path="url(#pd1adc9b042)" d="M 0 0 
z
" style="fill:#ffd700;"/>
   </g>
   <g id="patch_124">
    <path clip-path="url(#pd1adc9b042)" d="M -189.72 -71.286957 
L -189.051275 -71.286957 
L -189.051275 -98.678261 
L -189.72 -98.678261 
z
" style="fill:#ffd700;"/>
   </g>
   <g id="patch_125">
    <path clip-path="url(#pd1adc9b042)" d="M -189.72 -71.286957 
L -189.545549 -71.286957 
L -189.545549 -98.678261 
L -189.72 -98.678261 
z
" style="fill:#ffd700;"/>
   </g>
   <g id="patch_126">
    <path clip-path="url(#pd1adc9b042)" d="M -189.72 -98.678261 
L -186.434216 -98.678261 
L -186.434216 -126.069565 
L -189.72 -126.069565 
z
" style="fill:#9acd32;"/>
   </g>
   <g id="patch_127">
    <path clip-path="url(#pd1adc9b042)" d="M 0 0 
z
" style="fill:#9acd32;"/>
   </g>
   <g id="patch_128">
    <path clip-path="url(#pd1adc9b042)" d="M 0 0 
z
" style="fill:#9acd32;"/>
   </g>
   <g id="patch_129">
    <path clip-path="url(#pd1adc9b042)" d="M 0 0 
z
" style="fill:#9acd32;"/>
   </g>
   <g id="matplotlib.axis_7">
    <g id="xtick_28">
     <g id="line2d_31">
      <g/>
     </g>
     <g id="text_28">
      <!-- 0 -->
      <g transform="translate(-192.90125 3.572351)scale(0.1 -0.1)">
       <use xlink:href="#DejaVuSans-48"/>
      </g>
     </g>
    </g>
    <g id="xtick_29">
     <g id="line2d_32">
      <g/>
     </g>
     <g id="text_29">
      <!-- 2000 -->
      <g transform="translate(-138.107439 3.572351)scale(0.1 -0.1)">
       <use xlink:href="#DejaVuSans-50"/>
       <use x="63.623047" xlink:href="#DejaVuSans-48"/>
       <use x="127.246094" xlink:href="#DejaVuSans-48"/>
       <use x="190.869141" xlink:href="#DejaVuSans-48"/>
      </g>
     </g>
    </g>
    <g id="xtick_30">
     <g id="line2d_33">
      <g/>
     </g>
     <g id="text_30">
      <!-- 4000 -->
      <g transform="translate(-73.769879 3.572351)scale(0.1 -0.1)">
       <use xlink:href="#DejaVuSans-52"/>
       <use x="63.623047" xlink:href="#DejaVuSans-48"/>
       <use x="127.246094" xlink:href="#DejaVuSans-48"/>
       <use x="190.869141" xlink:href="#DejaVuSans-48"/>
      </g>
     </g>
    </g>
    <g id="xtick_31">
     <g id="line2d_34">
      <g/>
     </g>
     <g id="text_31">
      <!-- 6000 -->
      <g transform="translate(-9.432318 3.572351)scale(0.1 -0.1)">
       <use xlink:href="#DejaVuSans-54"/>
       <use x="63.623047" xlink:href="#DejaVuSans-48"/>
       <use x="127.246094" xlink:href="#DejaVuSans-48"/>
       <use x="190.869141" xlink:href="#DejaVuSans-48"/>
      </g>
     </g>
    </g>
    <g id="xtick_32">
     <g id="line2d_35">
      <g/>
     </g>
     <g id="text_32">
      <!-- 8000 -->
      <g transform="translate(54.905242 3.572351)scale(0.1 -0.1)">
       <use xlink:href="#DejaVuSans-56"/>
       <use x="63.623047" xlink:href="#DejaVuSans-48"/>
       <use x="127.246094" xlink:href="#DejaVuSans-48"/>
       <use x="190.869141" xlink:href="#DejaVuSans-48"/>
      </g>
     </g>
    </g>
    <g id="xtick_33">
     <g id="line2d_36">
      <g/>
     </g>
     <g id="text_33">
      <!-- 10000 -->
      <g transform="translate(116.061553 3.572351)scale(0.1 -0.1)">
       <use xlink:href="#DejaVuSans-49"/>
       <use x="63.623047" xlink:href="#DejaVuSans-48"/>
       <use x="127.246094" xlink:href="#DejaVuSans-48"/>
       <use x="190.869141" xlink:href="#DejaVuSans-48"/>
       <use x="254.492188" xlink:href="#DejaVuSans-48"/>
      </g>
     </g>
    </g>
    <g id="xtick_34">
     <g id="line2d_37">
      <g/>
     </g>
     <g id="text_34">
      <!-- 12000 -->
      <g transform="translate(180.399113 3.572351)scale(0.1 -0.1)">
       <use xlink:href="#DejaVuSans-49"/>
       <use x="63.623047" xlink:href="#DejaVuSans-50"/>
       <use x="127.246094" xlink:href="#DejaVuSans-48"/>
       <use x="190.869141" xlink:href="#DejaVuSans-48"/>
       <use x="254.492188" xlink:href="#DejaVuSans-48"/>
      </g>
     </g>
    </g>
    <g id="xtick_35">
     <g id="line2d_38">
      <g/>
     </g>
     <g id="text_35">
      <!-- 14000 -->
      <g transform="translate(244.736674 3.572351)scale(0.1 -0.1)">
       <use xlink:href="#DejaVuSans-49"/>
       <use x="63.623047" xlink:href="#DejaVuSans-52"/>
       <use x="127.246094" xlink:href="#DejaVuSans-48"/>
       <use x="190.869141" xlink:href="#DejaVuSans-48"/>
       <use x="254.492188" xlink:href="#DejaVuSans-48"/>
      </g>
     </g>
    </g>
    <g id="xtick_36">
     <g id="line2d_39">
      <g/>
     </g>
     <g id="text_36">
      <!-- 16000 -->
      <g transform="translate(309.074234 3.572351)scale(0.1 -0.1)">
       <use xlink:href="#DejaVuSans-49"/>
       <use x="63.623047" xlink:href="#DejaVuSans-54"/>
       <use x="127.246094" xlink:href="#DejaVuSans-48"/>
       <use x="190.869141" xlink:href="#DejaVuSans-48"/>
       <use x="254.492188" xlink:href="#DejaVuSans-48"/>
      </g>
     </g>
    </g>
   </g>
   <g id="matplotlib.axis_8">
    <g id="ytick_4">
     <g id="line2d_40">
      <g/>
     </g>
    </g>
   </g>
   <g id="patch_130">
    <path style="fill:none;stroke:#000000;stroke-linecap:square;stroke-linejoin:miter;stroke-width:0.8;"/>
   </g>
   <g id="patch_131">
    <path style="fill:none;stroke:#000000;stroke-linecap:square;stroke-linejoin:miter;stroke-width:0.8;"/>
   </g>
   <g id="patch_132">
    <path style="fill:none;stroke:#000000;stroke-linecap:square;stroke-linejoin:miter;stroke-width:0.8;"/>
   </g>
   <g id="patch_133">
    <path style="fill:none;stroke:#000000;stroke-linecap:square;stroke-linejoin:miter;stroke-width:0.8;"/>
   </g>
   <g id="legend_1">
    <g id="patch_134">
     <path d="M 2.252656 105.746875 
L 176.307344 105.746875 
Q 178.307344 105.746875 178.307344 103.746875 
L 178.307344 2 
Q 178.307344 0 176.307344 0 
L 2.252656 0 
Q 0.252656 0 0.252656 2 
L 0.252656 103.746875 
Q 0.252656 105.746875 2.252656 105.746875 
z
" style="fill:#ffffff;opacity:0.8;stroke:#cccccc;stroke-linejoin:miter;"/>
    </g>
    <g id="patch_135">
     <path d="M 4.252656 11.598438 
L 24.252656 11.598438 
L 24.252656 4.598438 
L 4.252656 4.598438 
z
" style="fill:#124197;"/>
    </g>
    <g id="text_37">
     <!-- Tinker Edge R -->
     <g transform="translate(32.252656 11.598438)scale(0.1 -0.1)">
      <defs>
       <path d="M -0.296875 72.90625 
L 61.375 72.90625 
L 61.375 64.59375 
L 35.5 64.59375 
L 35.5 0 
L 25.59375 0 
L 25.59375 64.59375 
L -0.296875 64.59375 
z
" id="DejaVuSans-84"/>
       <path d="M 9.421875 54.6875 
L 18.40625 54.6875 
L 18.40625 0 
L 9.421875 0 
z
M 9.421875 75.984375 
L 18.40625 75.984375 
L 18.40625 64.59375 
L 9.421875 64.59375 
z
" id="DejaVuSans-105"/>
       <path d="M 54.890625 33.015625 
L 54.890625 0 
L 45.90625 0 
L 45.90625 32.71875 
Q 45.90625 40.484375 42.875 44.328125 
Q 39.84375 48.1875 33.796875 48.1875 
Q 26.515625 48.1875 22.3125 43.546875 
Q 18.109375 38.921875 18.109375 30.90625 
L 18.109375 0 
L 9.078125 0 
L 9.078125 54.6875 
L 18.109375 54.6875 
L 18.109375 46.1875 
Q 21.34375 51.125 25.703125 53.5625 
Q 30.078125 56 35.796875 56 
Q 45.21875 56 50.046875 50.171875 
Q 54.890625 44.34375 54.890625 33.015625 
z
" id="DejaVuSans-110"/>
       <path d="M 9.078125 75.984375 
L 18.109375 75.984375 
L 18.109375 31.109375 
L 44.921875 54.6875 
L 56.390625 54.6875 
L 27.390625 29.109375 
L 57.625 0 
L 45.90625 0 
L 18.109375 26.703125 
L 18.109375 0 
L 9.078125 0 
z
" id="DejaVuSans-107"/>
       <path d="M 56.203125 29.59375 
L 56.203125 25.203125 
L 14.890625 25.203125 
Q 15.484375 15.921875 20.484375 11.0625 
Q 25.484375 6.203125 34.421875 6.203125 
Q 39.59375 6.203125 44.453125 7.46875 
Q 49.3125 8.734375 54.109375 11.28125 
L 54.109375 2.78125 
Q 49.265625 0.734375 44.1875 -0.34375 
Q 39.109375 -1.421875 33.890625 -1.421875 
Q 20.796875 -1.421875 13.15625 6.1875 
Q 5.515625 13.8125 5.515625 26.8125 
Q 5.515625 40.234375 12.765625 48.109375 
Q 20.015625 56 32.328125 56 
Q 43.359375 56 49.78125 48.890625 
Q 56.203125 41.796875 56.203125 29.59375 
z
M 47.21875 32.234375 
Q 47.125 39.59375 43.09375 43.984375 
Q 39.0625 48.390625 32.421875 48.390625 
Q 24.90625 48.390625 20.390625 44.140625 
Q 15.875 39.890625 15.1875 32.171875 
z
" id="DejaVuSans-101"/>
       <path d="M 41.109375 46.296875 
Q 39.59375 47.171875 37.8125 47.578125 
Q 36.03125 48 33.890625 48 
Q 26.265625 48 22.1875 43.046875 
Q 18.109375 38.09375 18.109375 28.8125 
L 18.109375 0 
L 9.078125 0 
L 9.078125 54.6875 
L 18.109375 54.6875 
L 18.109375 46.1875 
Q 20.953125 51.171875 25.484375 53.578125 
Q 30.03125 56 36.53125 56 
Q 37.453125 56 38.578125 55.875 
Q 39.703125 55.765625 41.0625 55.515625 
z
" id="DejaVuSans-114"/>
       <path id="DejaVuSans-32"/>
       <path d="M 9.8125 72.90625 
L 55.90625 72.90625 
L 55.90625 64.59375 
L 19.671875 64.59375 
L 19.671875 43.015625 
L 54.390625 43.015625 
L 54.390625 34.71875 
L 19.671875 34.71875 
L 19.671875 8.296875 
L 56.78125 8.296875 
L 56.78125 0 
L 9.8125 0 
z
" id="DejaVuSans-69"/>
       <path d="M 45.40625 46.390625 
L 45.40625 75.984375 
L 54.390625 75.984375 
L 54.390625 0 
L 45.40625 0 
L 45.40625 8.203125 
Q 42.578125 3.328125 38.25 0.953125 
Q 33.9375 -1.421875 27.875 -1.421875 
Q 17.96875 -1.421875 11.734375 6.484375 
Q 5.515625 14.40625 5.515625 27.296875 
Q 5.515625 40.1875 11.734375 48.09375 
Q 17.96875 56 27.875 56 
Q 33.9375 56 38.25 53.625 
Q 42.578125 51.265625 45.40625 46.390625 
z
M 14.796875 27.296875 
Q 14.796875 17.390625 18.875 11.75 
Q 22.953125 6.109375 30.078125 6.109375 
Q 37.203125 6.109375 41.296875 11.75 
Q 45.40625 17.390625 45.40625 27.296875 
Q 45.40625 37.203125 41.296875 42.84375 
Q 37.203125 48.484375 30.078125 48.484375 
Q 22.953125 48.484375 18.875 42.84375 
Q 14.796875 37.203125 14.796875 27.296875 
z
" id="DejaVuSans-100"/>
       <path d="M 45.40625 27.984375 
Q 45.40625 37.75 41.375 43.109375 
Q 37.359375 48.484375 30.078125 48.484375 
Q 22.859375 48.484375 18.828125 43.109375 
Q 14.796875 37.75 14.796875 27.984375 
Q 14.796875 18.265625 18.828125 12.890625 
Q 22.859375 7.515625 30.078125 7.515625 
Q 37.359375 7.515625 41.375 12.890625 
Q 45.40625 18.265625 45.40625 27.984375 
z
M 54.390625 6.78125 
Q 54.390625 -7.171875 48.1875 -13.984375 
Q 42 -20.796875 29.203125 -20.796875 
Q 24.46875 -20.796875 20.265625 -20.09375 
Q 16.0625 -19.390625 12.109375 -17.921875 
L 12.109375 -9.1875 
Q 16.0625 -11.328125 19.921875 -12.34375 
Q 23.78125 -13.375 27.78125 -13.375 
Q 36.625 -13.375 41.015625 -8.765625 
Q 45.40625 -4.15625 45.40625 5.171875 
L 45.40625 9.625 
Q 42.625 4.78125 38.28125 2.390625 
Q 33.9375 0 27.875 0 
Q 17.828125 0 11.671875 7.65625 
Q 5.515625 15.328125 5.515625 27.984375 
Q 5.515625 40.671875 11.671875 48.328125 
Q 17.828125 56 27.875 56 
Q 33.9375 56 38.28125 53.609375 
Q 42.625 51.21875 45.40625 46.390625 
L 45.40625 54.6875 
L 54.390625 54.6875 
z
" id="DejaVuSans-103"/>
       <path d="M 44.390625 34.1875 
Q 47.5625 33.109375 50.5625 29.59375 
Q 53.5625 26.078125 56.59375 19.921875 
L 66.609375 0 
L 56 0 
L 46.6875 18.703125 
Q 43.0625 26.03125 39.671875 28.421875 
Q 36.28125 30.8125 30.421875 30.8125 
L 19.671875 30.8125 
L 19.671875 0 
L 9.8125 0 
L 9.8125 72.90625 
L 32.078125 72.90625 
Q 44.578125 72.90625 50.734375 67.671875 
Q 56.890625 62.453125 56.890625 51.90625 
Q 56.890625 45.015625 53.6875 40.46875 
Q 50.484375 35.9375 44.390625 34.1875 
z
M 19.671875 64.796875 
L 19.671875 38.921875 
L 32.078125 38.921875 
Q 39.203125 38.921875 42.84375 42.21875 
Q 46.484375 45.515625 46.484375 51.90625 
Q 46.484375 58.296875 42.84375 61.546875 
Q 39.203125 64.796875 32.078125 64.796875 
z
" id="DejaVuSans-82"/>
      </defs>
      <use xlink:href="#DejaVuSans-84"/>
      <use x="57.958984" xlink:href="#DejaVuSans-105"/>
      <use x="85.742188" xlink:href="#DejaVuSans-110"/>
      <use x="149.121094" xlink:href="#DejaVuSans-107"/>
      <use x="203.40625" xlink:href="#DejaVuSans-101"/>
      <use x="264.929688" xlink:href="#DejaVuSans-114"/>
      <use x="306.042969" xlink:href="#DejaVuSans-32"/>
      <use x="337.830078" xlink:href="#DejaVuSans-69"/>
      <use x="401.013672" xlink:href="#DejaVuSans-100"/>
      <use x="464.490234" xlink:href="#DejaVuSans-103"/>
      <use x="527.966797" xlink:href="#DejaVuSans-101"/>
      <use x="589.490234" xlink:href="#DejaVuSans-32"/>
      <use x="621.277344" xlink:href="#DejaVuSans-82"/>
     </g>
    </g>
    <g id="patch_136">
     <path d="M 4.252656 26.276563 
L 24.252656 26.276563 
L 24.252656 19.276563 
L 4.252656 19.276563 
z
" style="fill:#a31900;"/>
    </g>
    <g id="text_38">
     <!-- Raspberry Pi -->
     <g transform="translate(32.252656 26.276563)scale(0.1 -0.1)">
      <defs>
       <path d="M 34.28125 27.484375 
Q 23.390625 27.484375 19.1875 25 
Q 14.984375 22.515625 14.984375 16.5 
Q 14.984375 11.71875 18.140625 8.90625 
Q 21.296875 6.109375 26.703125 6.109375 
Q 34.1875 6.109375 38.703125 11.40625 
Q 43.21875 16.703125 43.21875 25.484375 
L 43.21875 27.484375 
z
M 52.203125 31.203125 
L 52.203125 0 
L 43.21875 0 
L 43.21875 8.296875 
Q 40.140625 3.328125 35.546875 0.953125 
Q 30.953125 -1.421875 24.3125 -1.421875 
Q 15.921875 -1.421875 10.953125 3.296875 
Q 6 8.015625 6 15.921875 
Q 6 25.140625 12.171875 29.828125 
Q 18.359375 34.515625 30.609375 34.515625 
L 43.21875 34.515625 
L 43.21875 35.40625 
Q 43.21875 41.609375 39.140625 45 
Q 35.0625 48.390625 27.6875 48.390625 
Q 23 48.390625 18.546875 47.265625 
Q 14.109375 46.140625 10.015625 43.890625 
L 10.015625 52.203125 
Q 14.9375 54.109375 19.578125 55.046875 
Q 24.21875 56 28.609375 56 
Q 40.484375 56 46.34375 49.84375 
Q 52.203125 43.703125 52.203125 31.203125 
z
" id="DejaVuSans-97"/>
       <path d="M 44.28125 53.078125 
L 44.28125 44.578125 
Q 40.484375 46.53125 36.375 47.5 
Q 32.28125 48.484375 27.875 48.484375 
Q 21.1875 48.484375 17.84375 46.4375 
Q 14.5 44.390625 14.5 40.28125 
Q 14.5 37.15625 16.890625 35.375 
Q 19.28125 33.59375 26.515625 31.984375 
L 29.59375 31.296875 
Q 39.15625 29.25 43.1875 25.515625 
Q 47.21875 21.78125 47.21875 15.09375 
Q 47.21875 7.46875 41.1875 3.015625 
Q 35.15625 -1.421875 24.609375 -1.421875 
Q 20.21875 -1.421875 15.453125 -0.5625 
Q 10.6875 0.296875 5.421875 2 
L 5.421875 11.28125 
Q 10.40625 8.6875 15.234375 7.390625 
Q 20.0625 6.109375 24.8125 6.109375 
Q 31.15625 6.109375 34.5625 8.28125 
Q 37.984375 10.453125 37.984375 14.40625 
Q 37.984375 18.0625 35.515625 20.015625 
Q 33.0625 21.96875 24.703125 23.78125 
L 21.578125 24.515625 
Q 13.234375 26.265625 9.515625 29.90625 
Q 5.8125 33.546875 5.8125 39.890625 
Q 5.8125 47.609375 11.28125 51.796875 
Q 16.75 56 26.8125 56 
Q 31.78125 56 36.171875 55.265625 
Q 40.578125 54.546875 44.28125 53.078125 
z
" id="DejaVuSans-115"/>
       <path d="M 18.109375 8.203125 
L 18.109375 -20.796875 
L 9.078125 -20.796875 
L 9.078125 54.6875 
L 18.109375 54.6875 
L 18.109375 46.390625 
Q 20.953125 51.265625 25.265625 53.625 
Q 29.59375 56 35.59375 56 
Q 45.5625 56 51.78125 48.09375 
Q 58.015625 40.1875 58.015625 27.296875 
Q 58.015625 14.40625 51.78125 6.484375 
Q 45.5625 -1.421875 35.59375 -1.421875 
Q 29.59375 -1.421875 25.265625 0.953125 
Q 20.953125 3.328125 18.109375 8.203125 
z
M 48.6875 27.296875 
Q 48.6875 37.203125 44.609375 42.84375 
Q 40.53125 48.484375 33.40625 48.484375 
Q 26.265625 48.484375 22.1875 42.84375 
Q 18.109375 37.203125 18.109375 27.296875 
Q 18.109375 17.390625 22.1875 11.75 
Q 26.265625 6.109375 33.40625 6.109375 
Q 40.53125 6.109375 44.609375 11.75 
Q 48.6875 17.390625 48.6875 27.296875 
z
" id="DejaVuSans-112"/>
       <path d="M 48.6875 27.296875 
Q 48.6875 37.203125 44.609375 42.84375 
Q 40.53125 48.484375 33.40625 48.484375 
Q 26.265625 48.484375 22.1875 42.84375 
Q 18.109375 37.203125 18.109375 27.296875 
Q 18.109375 17.390625 22.1875 11.75 
Q 26.265625 6.109375 33.40625 6.109375 
Q 40.53125 6.109375 44.609375 11.75 
Q 48.6875 17.390625 48.6875 27.296875 
z
M 18.109375 46.390625 
Q 20.953125 51.265625 25.265625 53.625 
Q 29.59375 56 35.59375 56 
Q 45.5625 56 51.78125 48.09375 
Q 58.015625 40.1875 58.015625 27.296875 
Q 58.015625 14.40625 51.78125 6.484375 
Q 45.5625 -1.421875 35.59375 -1.421875 
Q 29.59375 -1.421875 25.265625 0.953125 
Q 20.953125 3.328125 18.109375 8.203125 
L 18.109375 0 
L 9.078125 0 
L 9.078125 75.984375 
L 18.109375 75.984375 
z
" id="DejaVuSans-98"/>
       <path d="M 32.171875 -5.078125 
Q 28.375 -14.84375 24.75 -17.8125 
Q 21.140625 -20.796875 15.09375 -20.796875 
L 7.90625 -20.796875 
L 7.90625 -13.28125 
L 13.1875 -13.28125 
Q 16.890625 -13.28125 18.9375 -11.515625 
Q 21 -9.765625 23.484375 -3.21875 
L 25.09375 0.875 
L 2.984375 54.6875 
L 12.5 54.6875 
L 29.59375 11.921875 
L 46.6875 54.6875 
L 56.203125 54.6875 
z
" id="DejaVuSans-121"/>
       <path d="M 19.671875 64.796875 
L 19.671875 37.40625 
L 32.078125 37.40625 
Q 38.96875 37.40625 42.71875 40.96875 
Q 46.484375 44.53125 46.484375 51.125 
Q 46.484375 57.671875 42.71875 61.234375 
Q 38.96875 64.796875 32.078125 64.796875 
z
M 9.8125 72.90625 
L 32.078125 72.90625 
Q 44.34375 72.90625 50.609375 67.359375 
Q 56.890625 61.8125 56.890625 51.125 
Q 56.890625 40.328125 50.609375 34.8125 
Q 44.34375 29.296875 32.078125 29.296875 
L 19.671875 29.296875 
L 19.671875 0 
L 9.8125 0 
z
" id="DejaVuSans-80"/>
      </defs>
      <use xlink:href="#DejaVuSans-82"/>
      <use x="67.232422" xlink:href="#DejaVuSans-97"/>
      <use x="128.511719" xlink:href="#DejaVuSans-115"/>
      <use x="180.611328" xlink:href="#DejaVuSans-112"/>
      <use x="244.087891" xlink:href="#DejaVuSans-98"/>
      <use x="307.564453" xlink:href="#DejaVuSans-101"/>
      <use x="369.087891" xlink:href="#DejaVuSans-114"/>
      <use x="408.451172" xlink:href="#DejaVuSans-114"/>
      <use x="449.564453" xlink:href="#DejaVuSans-121"/>
      <use x="508.744141" xlink:href="#DejaVuSans-32"/>
      <use x="540.53125" xlink:href="#DejaVuSans-80"/>
      <use x="598.583984" xlink:href="#DejaVuSans-105"/>
     </g>
    </g>
    <g id="patch_137">
     <path d="M 4.252656 40.954688 
L 24.252656 40.954688 
L 24.252656 33.954688 
L 4.252656 33.954688 
z
" style="fill:#806c00;"/>
    </g>
    <g id="text_39">
     <!-- Coral Dev Board -->
     <g transform="translate(32.252656 40.954688)scale(0.1 -0.1)">
      <defs>
       <path d="M 64.40625 67.28125 
L 64.40625 56.890625 
Q 59.421875 61.53125 53.78125 63.8125 
Q 48.140625 66.109375 41.796875 66.109375 
Q 29.296875 66.109375 22.65625 58.46875 
Q 16.015625 50.828125 16.015625 36.375 
Q 16.015625 21.96875 22.65625 14.328125 
Q 29.296875 6.6875 41.796875 6.6875 
Q 48.140625 6.6875 53.78125 8.984375 
Q 59.421875 11.28125 64.40625 15.921875 
L 64.40625 5.609375 
Q 59.234375 2.09375 53.4375 0.328125 
Q 47.65625 -1.421875 41.21875 -1.421875 
Q 24.65625 -1.421875 15.125 8.703125 
Q 5.609375 18.84375 5.609375 36.375 
Q 5.609375 53.953125 15.125 64.078125 
Q 24.65625 74.21875 41.21875 74.21875 
Q 47.75 74.21875 53.53125 72.484375 
Q 59.328125 70.75 64.40625 67.28125 
z
" id="DejaVuSans-67"/>
       <path d="M 30.609375 48.390625 
Q 23.390625 48.390625 19.1875 42.75 
Q 14.984375 37.109375 14.984375 27.296875 
Q 14.984375 17.484375 19.15625 11.84375 
Q 23.34375 6.203125 30.609375 6.203125 
Q 37.796875 6.203125 41.984375 11.859375 
Q 46.1875 17.53125 46.1875 27.296875 
Q 46.1875 37.015625 41.984375 42.703125 
Q 37.796875 48.390625 30.609375 48.390625 
z
M 30.609375 56 
Q 42.328125 56 49.015625 48.375 
Q 55.71875 40.765625 55.71875 27.296875 
Q 55.71875 13.875 49.015625 6.21875 
Q 42.328125 -1.421875 30.609375 -1.421875 
Q 18.84375 -1.421875 12.171875 6.21875 
Q 5.515625 13.875 5.515625 27.296875 
Q 5.515625 40.765625 12.171875 48.375 
Q 18.84375 56 30.609375 56 
z
" id="DejaVuSans-111"/>
       <path d="M 9.421875 75.984375 
L 18.40625 75.984375 
L 18.40625 0 
L 9.421875 0 
z
" id="DejaVuSans-108"/>
       <path d="M 19.671875 64.796875 
L 19.671875 8.109375 
L 31.59375 8.109375 
Q 46.6875 8.109375 53.6875 14.9375 
Q 60.6875 21.78125 60.6875 36.53125 
Q 60.6875 51.171875 53.6875 57.984375 
Q 46.6875 64.796875 31.59375 64.796875 
z
M 9.8125 72.90625 
L 30.078125 72.90625 
Q 51.265625 72.90625 61.171875 64.09375 
Q 71.09375 55.28125 71.09375 36.53125 
Q 71.09375 17.671875 61.125 8.828125 
Q 51.171875 0 30.078125 0 
L 9.8125 0 
z
" id="DejaVuSans-68"/>
       <path d="M 2.984375 54.6875 
L 12.5 54.6875 
L 29.59375 8.796875 
L 46.6875 54.6875 
L 56.203125 54.6875 
L 35.6875 0 
L 23.484375 0 
z
" id="DejaVuSans-118"/>
       <path d="M 19.671875 34.8125 
L 19.671875 8.109375 
L 35.5 8.109375 
Q 43.453125 8.109375 47.28125 11.40625 
Q 51.125 14.703125 51.125 21.484375 
Q 51.125 28.328125 47.28125 31.5625 
Q 43.453125 34.8125 35.5 34.8125 
z
M 19.671875 64.796875 
L 19.671875 42.828125 
L 34.28125 42.828125 
Q 41.5 42.828125 45.03125 45.53125 
Q 48.578125 48.25 48.578125 53.8125 
Q 48.578125 59.328125 45.03125 62.0625 
Q 41.5 64.796875 34.28125 64.796875 
z
M 9.8125 72.90625 
L 35.015625 72.90625 
Q 46.296875 72.90625 52.390625 68.21875 
Q 58.5 63.53125 58.5 54.890625 
Q 58.5 48.1875 55.375 44.234375 
Q 52.25 40.28125 46.1875 39.3125 
Q 53.46875 37.75 57.5 32.78125 
Q 61.53125 27.828125 61.53125 20.40625 
Q 61.53125 10.640625 54.890625 5.3125 
Q 48.25 0 35.984375 0 
L 9.8125 0 
z
" id="DejaVuSans-66"/>
      </defs>
      <use xlink:href="#DejaVuSans-67"/>
      <use x="69.824219" xlink:href="#DejaVuSans-111"/>
      <use x="131.005859" xlink:href="#DejaVuSans-114"/>
      <use x="172.119141" xlink:href="#DejaVuSans-97"/>
      <use x="233.398438" xlink:href="#DejaVuSans-108"/>
      <use x="261.181641" xlink:href="#DejaVuSans-32"/>
      <use x="292.96875" xlink:href="#DejaVuSans-68"/>
      <use x="369.970703" xlink:href="#DejaVuSans-101"/>
      <use x="431.494141" xlink:href="#DejaVuSans-118"/>
      <use x="490.673828" xlink:href="#DejaVuSans-32"/>
      <use x="522.460938" xlink:href="#DejaVuSans-66"/>
      <use x="591.064453" xlink:href="#DejaVuSans-111"/>
      <use x="652.246094" xlink:href="#DejaVuSans-97"/>
      <use x="713.525391" xlink:href="#DejaVuSans-114"/>
      <use x="752.888672" xlink:href="#DejaVuSans-100"/>
     </g>
    </g>
    <g id="patch_138">
     <path d="M 4.252656 55.632813 
L 24.252656 55.632813 
L 24.252656 48.632813 
L 4.252656 48.632813 
z
" style="fill:#4d6619;"/>
    </g>
    <g id="text_40">
     <!-- Jetson Nano -->
     <g transform="translate(32.252656 55.632813)scale(0.1 -0.1)">
      <defs>
       <path d="M 9.8125 72.90625 
L 19.671875 72.90625 
L 19.671875 5.078125 
Q 19.671875 -8.109375 14.671875 -14.0625 
Q 9.671875 -20.015625 -1.421875 -20.015625 
L -5.171875 -20.015625 
L -5.171875 -11.71875 
L -2.09375 -11.71875 
Q 4.4375 -11.71875 7.125 -8.046875 
Q 9.8125 -4.390625 9.8125 5.078125 
z
" id="DejaVuSans-74"/>
       <path d="M 18.3125 70.21875 
L 18.3125 54.6875 
L 36.8125 54.6875 
L 36.8125 47.703125 
L 18.3125 47.703125 
L 18.3125 18.015625 
Q 18.3125 11.328125 20.140625 9.421875 
Q 21.96875 7.515625 27.59375 7.515625 
L 36.8125 7.515625 
L 36.8125 0 
L 27.59375 0 
Q 17.1875 0 13.234375 3.875 
Q 9.28125 7.765625 9.28125 18.015625 
L 9.28125 47.703125 
L 2.6875 47.703125 
L 2.6875 54.6875 
L 9.28125 54.6875 
L 9.28125 70.21875 
z
" id="DejaVuSans-116"/>
       <path d="M 9.8125 72.90625 
L 23.09375 72.90625 
L 55.421875 11.921875 
L 55.421875 72.90625 
L 64.984375 72.90625 
L 64.984375 0 
L 51.703125 0 
L 19.390625 60.984375 
L 19.390625 0 
L 9.8125 0 
z
" id="DejaVuSans-78"/>
      </defs>
      <use xlink:href="#DejaVuSans-74"/>
      <use x="29.492188" xlink:href="#DejaVuSans-101"/>
      <use x="91.015625" xlink:href="#DejaVuSans-116"/>
      <use x="130.224609" xlink:href="#DejaVuSans-115"/>
      <use x="182.324219" xlink:href="#DejaVuSans-111"/>
      <use x="243.505859" xlink:href="#DejaVuSans-110"/>
      <use x="306.884766" xlink:href="#DejaVuSans-32"/>
      <use x="338.671875" xlink:href="#DejaVuSans-78"/>
      <use x="413.476562" xlink:href="#DejaVuSans-97"/>
      <use x="474.755859" xlink:href="#DejaVuSans-110"/>
      <use x="538.134766" xlink:href="#DejaVuSans-111"/>
     </g>
    </g>
    <g id="patch_139">
     <path d="M 4.252656 70.310938 
L 24.252656 70.310938 
L 24.252656 63.310938 
L 4.252656 63.310938 
z
" style="fill:#6495ed;"/>
    </g>
    <g id="text_41">
     <!-- Tinker Edge R (optimized) -->
     <g transform="translate(32.252656 70.310938)scale(0.1 -0.1)">
      <defs>
       <path d="M 31 75.875 
Q 24.46875 64.65625 21.28125 53.65625 
Q 18.109375 42.671875 18.109375 31.390625 
Q 18.109375 20.125 21.3125 9.0625 
Q 24.515625 -2 31 -13.1875 
L 23.1875 -13.1875 
Q 15.875 -1.703125 12.234375 9.375 
Q 8.59375 20.453125 8.59375 31.390625 
Q 8.59375 42.28125 12.203125 53.3125 
Q 15.828125 64.359375 23.1875 75.875 
z
" id="DejaVuSans-40"/>
       <path d="M 52 44.1875 
Q 55.375 50.25 60.0625 53.125 
Q 64.75 56 71.09375 56 
Q 79.640625 56 84.28125 50.015625 
Q 88.921875 44.046875 88.921875 33.015625 
L 88.921875 0 
L 79.890625 0 
L 79.890625 32.71875 
Q 79.890625 40.578125 77.09375 44.375 
Q 74.3125 48.1875 68.609375 48.1875 
Q 61.625 48.1875 57.5625 43.546875 
Q 53.515625 38.921875 53.515625 30.90625 
L 53.515625 0 
L 44.484375 0 
L 44.484375 32.71875 
Q 44.484375 40.625 41.703125 44.40625 
Q 38.921875 48.1875 33.109375 48.1875 
Q 26.21875 48.1875 22.15625 43.53125 
Q 18.109375 38.875 18.109375 30.90625 
L 18.109375 0 
L 9.078125 0 
L 9.078125 54.6875 
L 18.109375 54.6875 
L 18.109375 46.1875 
Q 21.1875 51.21875 25.484375 53.609375 
Q 29.78125 56 35.6875 56 
Q 41.65625 56 45.828125 52.96875 
Q 50 49.953125 52 44.1875 
z
" id="DejaVuSans-109"/>
       <path d="M 5.515625 54.6875 
L 48.1875 54.6875 
L 48.1875 46.484375 
L 14.40625 7.171875 
L 48.1875 7.171875 
L 48.1875 0 
L 4.296875 0 
L 4.296875 8.203125 
L 38.09375 47.515625 
L 5.515625 47.515625 
z
" id="DejaVuSans-122"/>
       <path d="M 8.015625 75.875 
L 15.828125 75.875 
Q 23.140625 64.359375 26.78125 53.3125 
Q 30.421875 42.28125 30.421875 31.390625 
Q 30.421875 20.453125 26.78125 9.375 
Q 23.140625 -1.703125 15.828125 -13.1875 
L 8.015625 -13.1875 
Q 14.5 -2 17.703125 9.0625 
Q 20.90625 20.125 20.90625 31.390625 
Q 20.90625 42.671875 17.703125 53.65625 
Q 14.5 64.65625 8.015625 75.875 
z
" id="DejaVuSans-41"/>
      </defs>
      <use xlink:href="#DejaVuSans-84"/>
      <use x="57.958984" xlink:href="#DejaVuSans-105"/>
      <use x="85.742188" xlink:href="#DejaVuSans-110"/>
      <use x="149.121094" xlink:href="#DejaVuSans-107"/>
      <use x="203.40625" xlink:href="#DejaVuSans-101"/>
      <use x="264.929688" xlink:href="#DejaVuSans-114"/>
      <use x="306.042969" xlink:href="#DejaVuSans-32"/>
      <use x="337.830078" xlink:href="#DejaVuSans-69"/>
      <use x="401.013672" xlink:href="#DejaVuSans-100"/>
      <use x="464.490234" xlink:href="#DejaVuSans-103"/>
      <use x="527.966797" xlink:href="#DejaVuSans-101"/>
      <use x="589.490234" xlink:href="#DejaVuSans-32"/>
      <use x="621.277344" xlink:href="#DejaVuSans-82"/>
      <use x="690.759766" xlink:href="#DejaVuSans-32"/>
      <use x="722.546875" xlink:href="#DejaVuSans-40"/>
      <use x="761.560547" xlink:href="#DejaVuSans-111"/>
      <use x="822.742188" xlink:href="#DejaVuSans-112"/>
      <use x="886.21875" xlink:href="#DejaVuSans-116"/>
      <use x="925.427734" xlink:href="#DejaVuSans-105"/>
      <use x="953.210938" xlink:href="#DejaVuSans-109"/>
      <use x="1050.623047" xlink:href="#DejaVuSans-105"/>
      <use x="1078.40625" xlink:href="#DejaVuSans-122"/>
      <use x="1130.896484" xlink:href="#DejaVuSans-101"/>
      <use x="1192.419922" xlink:href="#DejaVuSans-100"/>
      <use x="1255.896484" xlink:href="#DejaVuSans-41"/>
     </g>
    </g>
    <g id="patch_140">
     <path d="M 4.252656 84.989063 
L 24.252656 84.989063 
L 24.252656 77.989063 
L 4.252656 77.989063 
z
" style="fill:#ffd700;"/>
    </g>
    <g id="text_42">
     <!-- Coral Dev Board (optimized) -->
     <g transform="translate(32.252656 84.989063)scale(0.1 -0.1)">
      <use xlink:href="#DejaVuSans-67"/>
      <use x="69.824219" xlink:href="#DejaVuSans-111"/>
      <use x="131.005859" xlink:href="#DejaVuSans-114"/>
      <use x="172.119141" xlink:href="#DejaVuSans-97"/>
      <use x="233.398438" xlink:href="#DejaVuSans-108"/>
      <use x="261.181641" xlink:href="#DejaVuSans-32"/>
      <use x="292.96875" xlink:href="#DejaVuSans-68"/>
      <use x="369.970703" xlink:href="#DejaVuSans-101"/>
      <use x="431.494141" xlink:href="#DejaVuSans-118"/>
      <use x="490.673828" xlink:href="#DejaVuSans-32"/>
      <use x="522.460938" xlink:href="#DejaVuSans-66"/>
      <use x="591.064453" xlink:href="#DejaVuSans-111"/>
      <use x="652.246094" xlink:href="#DejaVuSans-97"/>
      <use x="713.525391" xlink:href="#DejaVuSans-114"/>
      <use x="752.888672" xlink:href="#DejaVuSans-100"/>
      <use x="816.365234" xlink:href="#DejaVuSans-32"/>
      <use x="848.152344" xlink:href="#DejaVuSans-40"/>
      <use x="887.166016" xlink:href="#DejaVuSans-111"/>
      <use x="948.347656" xlink:href="#DejaVuSans-112"/>
      <use x="1011.824219" xlink:href="#DejaVuSans-116"/>
      <use x="1051.033203" xlink:href="#DejaVuSans-105"/>
      <use x="1078.816406" xlink:href="#DejaVuSans-109"/>
      <use x="1176.228516" xlink:href="#DejaVuSans-105"/>
      <use x="1204.011719" xlink:href="#DejaVuSans-122"/>
      <use x="1256.501953" xlink:href="#DejaVuSans-101"/>
      <use x="1318.025391" xlink:href="#DejaVuSans-100"/>
      <use x="1381.501953" xlink:href="#DejaVuSans-41"/>
     </g>
    </g>
    <g id="patch_141">
     <path d="M 4.252656 99.667187 
L 24.252656 99.667187 
L 24.252656 92.667187 
L 4.252656 92.667187 
z
" style="fill:#9acd32;"/>
    </g>
    <g id="text_43">
     <!-- Jetson Nano (optimized) -->
     <g transform="translate(32.252656 99.667187)scale(0.1 -0.1)">
      <use xlink:href="#DejaVuSans-74"/>
      <use x="29.492188" xlink:href="#DejaVuSans-101"/>
      <use x="91.015625" xlink:href="#DejaVuSans-116"/>
      <use x="130.224609" xlink:href="#DejaVuSans-115"/>
      <use x="182.324219" xlink:href="#DejaVuSans-111"/>
      <use x="243.505859" xlink:href="#DejaVuSans-110"/>
      <use x="306.884766" xlink:href="#DejaVuSans-32"/>
      <use x="338.671875" xlink:href="#DejaVuSans-78"/>
      <use x="413.476562" xlink:href="#DejaVuSans-97"/>
      <use x="474.755859" xlink:href="#DejaVuSans-110"/>
      <use x="538.134766" xlink:href="#DejaVuSans-111"/>
      <use x="599.316406" xlink:href="#DejaVuSans-32"/>
      <use x="631.103516" xlink:href="#DejaVuSans-40"/>
      <use x="670.117188" xlink:href="#DejaVuSans-111"/>
      <use x="731.298828" xlink:href="#DejaVuSans-112"/>
      <use x="794.775391" xlink:href="#DejaVuSans-116"/>
      <use x="833.984375" xlink:href="#DejaVuSans-105"/>
      <use x="861.767578" xlink:href="#DejaVuSans-109"/>
      <use x="959.179688" xlink:href="#DejaVuSans-105"/>
      <use x="986.962891" xlink:href="#DejaVuSans-122"/>
      <use x="1039.453125" xlink:href="#DejaVuSans-101"/>
      <use x="1100.976562" xlink:href="#DejaVuSans-100"/>
      <use x="1164.453125" xlink:href="#DejaVuSans-41"/>
     </g>
    </g>
   </g>
  </g>
 </g>
 <defs>
  <clipPath id="pefa7626a96">
   <rect height="120.521739" width="558" x="-189.72" y="-565.426087"/>
  </clipPath>
  <clipPath id="pe16e6e8487">
   <rect height="120.521739" width="558" x="-189.72" y="-420.8"/>
  </clipPath>
  <clipPath id="p90c13da503">
   <rect height="120.521739" width="558" x="-189.72" y="-276.173913"/>
  </clipPath>
  <clipPath id="pd1adc9b042">
   <rect height="120.521739" width="558" x="-189.72" y="-131.547826"/>
  </clipPath>
 </defs>
</svg>
